<svg xmlns="http://www.w3.org/2000/svg" width="16" height="16" viewBox="0 0 16 16">
  <path fill="#979797" d="M7.5,10.2728932 L5.35355339,8.12644663 C5.15829124,7.93118448 4.84170876,7.93118448 4.64644661,8.12644663 C4.45118446,8.32170877 4.45118446,8.63829126 4.64644661,8.83355341 L7.67138442,11.8584912 C7.86664657,12.0537534 8.18322906,12.0537534 8.3784912,11.8584912 L11.3785534,8.85842903 C11.5738155,8.66316689 11.5738155,8.3465844 11.3785534,8.15132225 C11.1832912,7.9560601 10.8667088,7.9560601 10.6714466,8.15132225 L8.5,10.3227689 L8.5,4.98000002 C8.5,4.70385764 8.27614237,4.48000002 8,4.48000002 C7.72385763,4.48000002 7.5,4.70385764 7.5,4.98000002 L7.5,4.98000002 L7.5,10.2728932 Z" transform="matrix(1 0 0 -1 0 16.485)"/>
</svg>
