<svg xmlns="http://www.w3.org/2000/svg" width="16" height="16" viewBox="0 0 16 16">
  <path fill="#979797" d="M7.5,9.79289322 L5.35355339,7.64644661 C5.15829124,7.45118446 4.84170876,7.45118446 4.64644661,7.64644661 C4.45118446,7.84170876 4.45118446,8.15829124 4.64644661,8.35355339 L7.67138442,11.3784912 C7.86664657,11.5737533 8.18322906,11.5737533 8.3784912,11.3784912 L11.3785534,8.37842901 C11.5738155,8.18316687 11.5738155,7.86658438 11.3785534,7.67132223 C11.1832912,7.47606009 10.8667088,7.47606009 10.6714466,7.67132223 L8.5,9.84276884 L8.5,4.5 C8.5,4.22385763 8.27614237,4 8,4 C7.72385763,4 7.5,4.22385763 7.5,4.5 L7.5,4.5 L7.5,9.79289322 Z"/>
</svg>
