<svg xmlns="http://www.w3.org/2000/svg" width="24" height="24" viewBox="0 0 24 24">
  <path fill="#979797" d="M19.5984032,6.34444824 L19.6346451,6.38384165 L10.7827485,18.6290868 L10.7790061,18.6257384 C10.7689608,18.6373594 10.7620669,18.6507532 10.7516277,18.6621773 C10.1894837,19.273366 9.29288961,19.2889264 8.70513991,18.7216613 L8.70139753,18.7259946 L8.67815542,18.6976313 C8.66476166,18.6842376 8.64939823,18.6747831 8.6363984,18.6607985 C8.58814147,18.6082083 8.54992986,18.5495121 8.50974858,18.4921947 L4.5099385,13.6117449 C4.49949924,13.6009117 4.48709032,13.59323 4.477045,13.5818059 C3.93577952,12.9824351 3.94976418,12.0281297 4.5087567,11.4506223 C5.06735528,10.8731149 5.95902516,10.8908419 6.50029064,11.4904096 C6.55248691,11.548121 6.59503179,11.6117414 6.63678881,11.6755587 L9.67658145,15.1585272 L18.4949937,5.14432794 L18.5245387,5.17643357 C18.8215651,4.85793783 19.2996041,4.8587257 19.5950547,5.18017594 C19.8905053,5.50142922 19.8912932,6.02142226 19.5984032,6.34444824"/>
</svg>
