<?xml version="1.0" encoding="UTF-8"?>
<svg width="24px" height="24px" viewBox="0 0 24 24" version="1.1" xmlns="http://www.w3.org/2000/svg" xmlns:xlink="http://www.w3.org/1999/xlink">
    <!-- Generator: Sketch 50 (54983) - http://www.bohemiancoding.com/sketch -->
    <title>icon/close</title>
    <desc>Created with Sketch.</desc>
    <defs></defs>
    <g id="icon/close" stroke="none" stroke-width="1" fill="none" fill-rule="evenodd">
        <path d="M13.4142136,12 L17.6562379,16.2420243 C18.0471026,16.632889 18.0501012,17.2636073 17.6568542,17.6568542 C17.26633,18.0473785 16.635346,18.0495595 16.2420243,17.6562379 L12,13.4142136 L7.75797567,17.6562379 C7.36711097,18.0471026 6.73639271,18.0501012 6.34314575,17.6568542 C5.95262146,17.26633 5.95044047,16.635346 6.34376211,16.2420243 L10.5857864,12 L6.34376211,7.75797567 C5.95289741,7.36711097 5.9498988,6.73639271 6.34314575,6.34314575 C6.73367004,5.95262146 7.36465403,5.95044047 7.75797567,6.34376211 L12,10.5857864 L16.2420243,6.34376211 C16.632889,5.95289741 17.2636073,5.9498988 17.6568542,6.34314575 C18.0473785,6.73367004 18.0495595,7.36465403 17.6562379,7.75797567 L13.4142136,12 Z" id="Combined-Shape" fill="#707070"></path>
    </g>
</svg>