<?xml version="1.0" encoding="UTF-8"?>
<svg width="24px" height="24px" viewBox="0 0 24 24" version="1.1" xmlns="http://www.w3.org/2000/svg" xmlns:xlink="http://www.w3.org/1999/xlink">
    <!-- Generator: Sketch 49.3 (51167) - http://www.bohemiancoding.com/sketch -->
    <title>collapsed</title>
    <desc>Created with Sketch.</desc>
    <defs></defs>
    <g id="collapsed" stroke="none" stroke-width="1" fill="none" fill-rule="evenodd">
        <g id="Flattened" transform="translate(3.000000, 5.000000)" fill="#8C8C8C">
            <path d="M1,0 L17,0 C17.5522847,-1.01453063e-16 18,0.44771525 18,1 C18,1.55228475 17.5522847,2 17,2 L1,2 C0.44771525,2 6.76353751e-17,1.55228475 0,1 C-6.76353751e-17,0.44771525 0.44771525,1.01453063e-16 1,0 Z M1,4 L17,4 C17.5522847,4 18,4.44771525 18,5 C18,5.55228475 17.5522847,6 17,6 L1,6 C0.44771525,6 6.76353751e-17,5.55228475 0,5 C-6.76353751e-17,4.44771525 0.44771525,4 1,4 Z M1,8 L17,8 C17.5522847,8 18,8.44771525 18,9 C18,9.55228475 17.5522847,10 17,10 L1,10 C0.44771525,10 6.76353751e-17,9.55228475 0,9 C-6.76353751e-17,8.44771525 0.44771525,8 1,8 Z M1,12 L17,12 C17.5522847,12 18,12.4477153 18,13 C18,13.5522847 17.5522847,14 17,14 L1,14 C0.44771525,14 6.76353751e-17,13.5522847 0,13 C-6.76353751e-17,12.4477153 0.44771525,12 1,12 Z" id="Combined-Shape"></path>
        </g>
    </g>
</svg>