<?xml version="1.0" encoding="UTF-8"?>
<svg width="24px" height="24px" viewBox="0 0 24 24" version="1.1" xmlns="http://www.w3.org/2000/svg" xmlns:xlink="http://www.w3.org/1999/xlink">
    <!-- Generator: Sketch 50 (54983) - http://www.bohemiancoding.com/sketch -->
    <title>dashboard</title>
    <desc>Created with Sketch.</desc>
    <defs></defs>
    <g id="dashboard" stroke="none" stroke-width="1" fill="none" fill-rule="evenodd">
        <path d="M18.5,11.75 L18.5,10 L17,10 L17,11.75 L15.25,11.75 L15.25,13.25 L17,13.25 L17,15 L18.5,15 L18.5,13.25 L20.25,13.25 L20.25,11.75 L18.5,11.75 Z M3,5 L21,5 C21.5522847,5 22,5.44771525 22,6 L22,18 C22,18.5522847 21.5522847,19 21,19 L3,19 C2.44771525,19 2,18.5522847 2,18 L2,6 C2,5.44771525 2.44771525,5 3,5 Z M3.5,6 C3.22385763,6 3,6.22385763 3,6.5 L3,17.5 C3,17.7761424 3.22385763,18 3.5,18 L7.5,18 C7.77614237,18 8,17.7761424 8,17.5 L8,6.5 C8,6.22385763 7.77614237,6 7.5,6 L3.5,6 Z M9.5,6 C9.22385763,6 9,6.22385763 9,6.5 L9,17.5 C9,17.7761424 9.22385763,18 9.5,18 L13.5,18 C13.7761424,18 14,17.7761424 14,17.5 L14,6.5 C14,6.22385763 13.7761424,6 13.5,6 L9.5,6 Z" id="Rectangle-15" fill="#707070"></path>
    </g>
</svg>