<?xml version="1.0" encoding="UTF-8"?>
<svg width="24px" height="24px" viewBox="0 0 24 24" version="1.1" xmlns="http://www.w3.org/2000/svg" xmlns:xlink="http://www.w3.org/1999/xlink">
    <!-- Generator: Sketch 49.3 (51167) - http://www.bohemiancoding.com/sketch -->
    <title>expanded</title>
    <desc>Created with Sketch.</desc>
    <defs></defs>
    <g id="expanded" stroke="none" stroke-width="1" fill="none" fill-rule="evenodd">
        <g id="Flattened" transform="translate(3.000000, 5.000000)" fill="#979797" fill-rule="nonzero">
            <path d="M2,6 L2,13 L16,13 L16,6 L2,6 Z M1,4 L17,4 C17.5522847,4 18,4.44771525 18,5 L18,14 C18,14.5522847 17.5522847,15 17,15 L1,15 C0.44771525,15 6.76353751e-17,14.5522847 0,14 L0,5 C-6.76353751e-17,4.44771525 0.44771525,4 1,4 Z M1,0 L17,0 C17.5522847,0 18,0.44771525 18,1 C18,1.55228475 17.5522847,2 17,2 L1,2 C0.44771525,2 6.76353751e-17,1.55228475 0,1 C-6.76353751e-17,0.44771525 0.44771525,0 1,0 Z" id="Rectangle-14"></path>
        </g>
    </g>
</svg>