<svg xmlns="http://www.w3.org/2000/svg" width="24" height="24" viewBox="0 0 24 24">
  <g fill="#979797">
    <path d="M12.5 16L12.5 4C12.5 3.72385763 12.2761424 3.5 12 3.5 11.7238576 3.5 11.5 3.72385763 11.5 4L11.5 16C11.5 16.2761424 11.7238576 16.5 12 16.5 12.2761424 16.5 12.5 16.2761424 12.5 16zM6 19.5L18 19.5C18.2761424 19.5 18.5 19.2761424 18.5 19 18.5 18.7238576 18.2761424 18.5 18 18.5L6 18.5C5.72385763 18.5 5.5 18.7238576 5.5 19 5.5 19.2761424 5.72385763 19.5 6 19.5z"/>
    <path d="M12,4.70710678 L15.6464466,8.35355339 C15.8417088,8.54881554 16.1582912,8.54881554 16.3535534,8.35355339 C16.5488155,8.15829124 16.5488155,7.84170876 16.3535534,7.64644661 L12.3535534,3.64644661 C12.1582912,3.45118446 11.8417088,3.45118446 11.6464466,3.64644661 L7.64644661,7.64644661 C7.45118446,7.84170876 7.45118446,8.15829124 7.64644661,8.35355339 C7.84170876,8.54881554 8.15829124,8.54881554 8.35355339,8.35355339 L12,4.70710678 Z"/>
  </g>
</svg>
