<svg xmlns="http://www.w3.org/2000/svg" width="24" height="24" viewBox="0 0 24 24">
  <path fill="#8C8C8C" fill-rule="evenodd" d="M2,7 C2,6.44771525 2.45530558,6 2.99180311,6 L21.0081969,6 C21.5559546,6 22,6.44386482 22,7 C22,7.55228475 21.5446944,8 21.0081969,8 L2.99180311,8 C2.44404538,8 2,7.55613518 2,7 Z M2,12 C2,11.4477153 2.4556644,11 2.99539757,11 L11.0046024,11 C11.5543453,11 12,11.4438648 12,12 C12,12.5522847 11.5443356,13 11.0046024,13 L2.99539757,13 C2.44565467,13 2,12.5561352 2,12 Z M2,17 C2,16.4477153 2.44892021,16 3.00748397,16 L15.992516,16 C16.5489341,16 17,16.4438648 17,17 C17,17.5522847 16.5510798,18 15.992516,18 L3.00748397,18 C2.45106594,18 2,17.5561352 2,17 Z"/>
</svg>
