<?xml version="1.0" encoding="UTF-8"?>
<svg width="16px" height="16px" viewBox="0 0 16 16" version="1.1" xmlns="http://www.w3.org/2000/svg" xmlns:xlink="http://www.w3.org/1999/xlink">
    <!-- Generator: Sketch 49.3 (51167) - http://www.bohemiancoding.com/sketch -->
    <title>filter-small</title>
    <desc>Created with Sketch.</desc>
    <defs></defs>
    <g id="filter-small" stroke="none" stroke-width="1" fill="none" fill-rule="evenodd">
        <g id="Group" transform="translate(7.000000, 11.000000)"></g>
        <path d="M3,5.5 C3,5.22385763 3.22765279,5 3.50964952,5 L12.4903505,5 C12.7718221,5 13,5.23193359 13,5.5 C13,5.77614237 12.7723472,6 12.4903505,6 L3.50964952,6 C3.22817786,6 3,5.76806641 3,5.5 Z" id="Rectangle" fill="#979797"></path>
        <path d="M5,8.5 C5,8.22385763 5.22788048,8 5.49100518,8 L10.5089948,8 C10.7801695,8 11,8.23193359 11,8.5 C11,8.77614237 10.7721195,9 10.5089948,9 L5.49100518,9 C5.21983051,9 5,8.76806641 5,8.5 Z" id="Rectangle" fill="#979797"></path>
        <path d="M7,11.5 C7,11.2238576 7.21403503,11 7.50468445,11 L8.49531555,11 C8.77404508,11 9,11.2319336 9,11.5 C9,11.7761424 8.78596497,12 8.49531555,12 L7.50468445,12 C7.22595492,12 7,11.7680664 7,11.5 Z" id="Rectangle" fill="#979797"></path>
    </g>
</svg>