<svg xmlns="http://www.w3.org/2000/svg" width="24" height="24" viewBox="0 0 24 24">
  <path fill="#979797" fill-rule="evenodd" d="M12,21 C7.02943725,21 3,16.9705627 3,12 C3,7.02943725 7.02943725,3 12,3 C16.9705627,3 21,7.02943725 21,12 C21,16.9705627 16.9705627,21 12,21 Z M9,12.5 C9,12.7680664 9.21983051,13 9.49100518,13 L14.5089948,13 C14.7721195,13 15,12.7761424 15,12.5 C15,12.2319336 14.7801695,12 14.5089948,12 L9.49100518,12 C9.22788048,12 9,12.2238576 9,12.5 Z M7,9.5 C7,9.76806641 7.22817786,10 7.50964952,10 L16.4903505,10 C16.7723472,10 17,9.77614237 17,9.5 C17,9.23193359 16.7718221,9 16.4903505,9 L7.50964952,9 C7.22765279,9 7,9.22385763 7,9.5 Z M11,15.5 C11,15.7680664 11.2259549,16 11.5046844,16 L12.4953156,16 C12.785965,16 13,15.7761424 13,15.5 C13,15.2319336 12.7740451,15 12.4953156,15 L11.5046844,15 C11.214035,15 11,15.2238576 11,15.5 Z"/>
</svg>
