<svg xmlns="http://www.w3.org/2000/svg" width="24" height="24" viewBox="0 0 24 24">
  <path fill="#8C8C8C" fill-rule="evenodd" d="M4,8.5 C4,8.22385763 4.22618103,8 4.4963932,8 L19.5036068,8 C19.7777572,8 20,8.23193359 20,8.5 C20,8.77614237 19.773819,9 19.5036068,9 L4.4963932,9 C4.22224281,9 4,8.76806641 4,8.5 Z M4,12.5 C4,12.2238576 4.22618103,12 4.4963932,12 L19.5036068,12 C19.7777572,12 20,12.2319336 20,12.5 C20,12.7761424 19.773819,13 19.5036068,13 L4.4963932,13 C4.22224281,13 4,12.7680664 4,12.5 Z M4,16.5 C4,16.2238576 4.22618103,16 4.4963932,16 L19.5036068,16 C19.7777572,16 20,16.2319336 20,16.5 C20,16.7761424 19.773819,17 19.5036068,17 L4.4963932,17 C4.22224281,17 4,16.7680664 4,16.5 Z"/>
</svg>
