<svg xmlns="http://www.w3.org/2000/svg" width="24" height="24" viewBox="0 0 24 24">
  <g fill="#979797">
    <path d="M12.5,16 C12.5,16.2761424 12.2761424,16.5 12,16.5 C11.7238576,16.5 11.5,16.2761424 11.5,16 L11.5,4 C11.5,3.72385763 11.7238576,3.5 12,3.5 C12.2761424,3.5 12.5,3.72385763 12.5,4 L12.5,16 Z M6,19.5 C5.72385763,19.5 5.5,19.2761424 5.5,19 C5.5,18.7238576 5.72385763,18.5 6,18.5 L18,18.5 C18.2761424,18.5 18.5,18.7238576 18.5,19 C18.5,19.2761424 18.2761424,19.5 18,19.5 L6,19.5 Z"/>
    <path d="M8.35355339,11.6464466 C8.15829124,11.4511845 7.84170876,11.4511845 7.64644661,11.6464466 C7.45118446,11.8417088 7.45118446,12.1582912 7.64644661,12.3535534 L11.6464466,16.3535534 C11.8417088,16.5488155 12.1582912,16.5488155 12.3535534,16.3535534 L16.3535534,12.3535534 C16.5488155,12.1582912 16.5488155,11.8417088 16.3535534,11.6464466 C16.1582912,11.4511845 15.8417088,11.4511845 15.6464466,11.6464466 L12,15.2928932 L8.35355339,11.6464466 Z"/>
  </g>
</svg>
