<?xml version="1.0" encoding="UTF-8"?>
<svg width="24px" height="24px" viewBox="0 0 24 24" version="1.1" xmlns="http://www.w3.org/2000/svg" xmlns:xlink="http://www.w3.org/1999/xlink">
    <!-- Generator: Sketch 52 (66869) - http://www.bohemiancoding.com/sketch -->
    <title>label</title>
    <desc>Created with Sketch.</desc>
    <g id="label" stroke="none" stroke-width="1" fill="none" fill-rule="evenodd">
        <path d="M12.8388348,19.9099026 L4.29289322,11.363961 C4.10535684,11.1764247 4,10.9220707 4,10.6568542 L4,5 C4,4.44771525 4.44771525,4 5,4 L10.6568542,4 C10.9220707,4 11.1764247,4.10535684 11.363961,4.29289322 L19.9099026,12.8388348 C20.1051647,13.0340969 20.1051647,13.3506794 19.9099026,13.5459415 L13.5459415,19.9099026 C13.3506794,20.1051647 13.0340969,20.1051647 12.8388348,19.9099026 Z M9.56066017,9.56066017 C10.1464466,8.97487373 10.1464466,8.02512627 9.56066017,7.43933983 C8.97487373,6.85355339 8.02512627,6.85355339 7.43933983,7.43933983 C6.85355339,8.02512627 6.85355339,8.97487373 7.43933983,9.56066017 C8.02512627,10.1464466 8.97487373,10.1464466 9.56066017,9.56066017 Z" id="Path-19" fill="#707070" fill-rule="nonzero"></path>
    </g>
</svg>