<svg xmlns="http://www.w3.org/2000/svg" width="24" height="24" viewBox="0 0 24 24">
  <path fill="#8C8C8C" fill-rule="evenodd" d="M20,11.5 C20.2761424,11.5 20.5,11.7238576 20.5,12 C20.5,12.2761424 20.2761424,12.5 20,12.5 L6.87026146,13.3206087 L10.6910398,17.1779526 C11.1040457,17.5946033 11.102984,18.2708593 10.6878547,18.6885783 C10.2727254,19.1052289 9.60066189,19.1030923 9.18659431,18.6864416 L4.04702811,13.4970607 L4,13.5 L4,13.4495768 L3.31001983,12.7529091 C3.10404775,12.5445838 3,12.2721583 3,11.9986646 C3,11.7251708 3.10404775,11.4527454 3.31001983,11.2444201 L4,10.5476251 L4,10.5 L4.04441079,10.5027757 L9.18234746,5.31409254 C9.59641504,4.89637356 10.2684786,4.89530523 10.6836079,5.31088754 C11.0987372,5.72646985 11.1008606,6.40379423 10.686793,6.82258155 L6.86751278,10.6792195 L20,11.5 Z"/>
</svg>
