<?xml version="1.0" encoding="UTF-8"?>
<svg width="24px" height="24px" viewBox="0 0 24 24" version="1.1" xmlns="http://www.w3.org/2000/svg" xmlns:xlink="http://www.w3.org/1999/xlink">
    <!-- Generator: Sketch 50 (54983) - http://www.bohemiancoding.com/sketch -->
    <title>more</title>
    <desc>Created with Sketch.</desc>
    <defs></defs>
    <g id="more" stroke="none" stroke-width="1" fill="none" fill-rule="evenodd">
        <path d="M12,8 C11.1715729,8 10.5,7.32842712 10.5,6.5 C10.5,5.67157288 11.1715729,5 12,5 C12.8284271,5 13.5,5.67157288 13.5,6.5 C13.5,7.32842712 12.8284271,8 12,8 Z M12,13.5 C11.1715729,13.5 10.5,12.8284271 10.5,12 C10.5,11.1715729 11.1715729,10.5 12,10.5 C12.8284271,10.5 13.5,11.1715729 13.5,12 C13.5,12.8284271 12.8284271,13.5 12,13.5 Z M12,19 C11.1715729,19 10.5,18.3284271 10.5,17.5 C10.5,16.6715729 11.1715729,16 12,16 C12.8284271,16 13.5,16.6715729 13.5,17.5 C13.5,18.3284271 12.8284271,19 12,19 Z" id="Combined-Shape" fill="#707070"></path>
    </g>
</svg>