<svg xmlns="http://www.w3.org/2000/svg" width="10" height="2" viewBox="0 0 10 2">
  <path fill="#707070" fill-rule="evenodd" d="M5,0 C5.55228475,-1.01453063e-16 6,0.44771525 6,1 L6,1 C6,1.55228475 5.55228475,2 5,2 C4.44771525,2 4,1.55228475 4,1 L4,1 L4,1 C4,0.44771525 4.44771525,1.01453063e-16 5,0 Z M9,0 C9.55228475,-1.01453063e-16 10,0.44771525 10,1 L10,1 C10,1.55228475 9.55228475,2 9,2 C8.44771525,2 8,1.55228475 8,1 L8,1 L8,1 C8,0.44771525 8.44771525,1.01453063e-16 9,0 Z M1,0 L1,0 C1.55228475,-1.01453063e-16 2,0.44771525 2,1 L2,1 C2,1.55228475 1.55228475,2 1,2 C0.44771525,2 6.76353751e-17,1.55228475 0,1 L0,1 L0,1 C-6.76353751e-17,0.44771525 0.44771525,1.01453063e-16 1,0 L1,0 Z"/>
</svg>
