<svg xmlns="http://www.w3.org/2000/svg" width="24" height="24" viewBox="0 0 24 24">
  <g fill="#979797" fill-rule="evenodd">
    <path d="M16.1568542,7 L13.5,7 C13.2238576,7 13,6.77614237 13,6.5 L13,6.5 L13,6.5 C13,6.22385763 13.2238576,6 13.5,6 L17.5,6 C17.6380712,6 17.7630712,6.05596441 17.8535534,6.14644661 C17.9440356,6.23692881 18,6.36192881 18,6.5 L18,10.5 C18,10.7761424 17.7761424,11 17.5,11 C17.2238576,11 17,10.7761424 17,10.5 L17,7.57106781 L10.8535534,13.7175144 C10.6582912,13.9127766 10.3417088,13.9127766 10.1464466,13.7175144 C9.95118446,13.5222523 9.95118446,13.2056698 10.1464466,13.0104076 L16.1568542,7 Z"/>
    <path d="M14,8 L12,8 L12,8.5 L12,9 L14,9 C14.552,9 15,9.448 15,10 L15,16 C15,16.552 14.552,17 14,17 L8,17 C7.448,17 7,16.552 7,16 L7,14 L6.5,14 L6,14 L6,16 C6,17.105 6.895,18 8,18 L14,18 C15.105,18 16,17.105 16,16 L16,10 C16,8.895 15.105,8 14,8" transform="rotate(90 11 13)"/>
    <path d="M10.5 8.5C10.5 8.224 10.276 8 10 8 9.724 8 9.5 8.224 9.5 8.5 9.5 8.776 9.724 9 10 9 10.276 9 10.5 8.776 10.5 8.5M15.5 13.5C15.224 13.5 15 13.724 15 14 15 14.276 15.224 14.5 15.5 14.5 15.776 14.5 16 14.276 16 14 16 13.724 15.776 13.5 15.5 13.5"/>
  </g>
</svg>
