<svg xmlns="http://www.w3.org/2000/svg" width="24" height="24" viewBox="0 0 24 24">
  <g fill="#979797">
    <path d="M14.1464466,14.3535534 L19.664281,19.8713878 C19.8595432,20.06665 20.1761257,20.06665 20.3713878,19.8713878 C20.56665,19.6761257 20.56665,19.3595432 20.3713878,19.164281 L14.8535534,13.6464466 C14.6582912,13.4511845 14.3417088,13.4511845 14.1464466,13.6464466 C13.9511845,13.8417088 13.9511845,14.1582912 14.1464466,14.3535534 Z"/>
    <path d="M10,15 C12.7614237,15 15,12.7614237 15,10 C15,7.23857625 12.7614237,5 10,5 C7.23857625,5 5,7.23857625 5,10 C5,12.7614237 7.23857625,15 10,15 Z M10,16 C6.6862915,16 4,13.3137085 4,10 C4,6.6862915 6.6862915,4 10,4 C13.3137085,4 16,6.6862915 16,10 C16,13.3137085 13.3137085,16 10,16 Z"/>
  </g>
</svg>
