<svg xmlns="http://www.w3.org/2000/svg" width="24" height="24" viewBox="0 0 24 24">
  <path fill="#8C8C8C" fill-rule="evenodd" d="M11.8738492,7.98646825 C9.72761905,7.98646825 7.98761905,9.72646825 7.98761905,11.8738492 C7.98761905,14.0200794 9.72761905,15.7600794 11.8738492,15.7600794 C14.0200794,15.7600794 15.7612302,14.0200794 15.7612302,11.8738492 C15.7612302,9.72646825 14.0200794,7.98646825 11.8738492,7.98646825 L11.8738492,7.98646825 Z M19.2078571,13.6069444 C18.8718254,13.7231746 18.517381,14.0384921 18.4207143,14.3054762 C18.3240476,14.5724603 18.1261111,15.5011508 18.2837698,15.8199206 L18.7072619,17.0731349 C18.7947222,17.418373 18.6600794,17.9063095 18.4080556,18.1583333 L18.1583333,18.4080556 C17.9063095,18.6600794 17.418373,18.7924206 17.0742857,18.7038095 L15.8245238,18.2791667 C15.5046032,18.1238095 15.0350794,18.0984921 14.7819048,18.2239286 C14.5275794,18.3493651 13.7231746,18.8718254 13.6069444,19.2078571 L13.0280952,20.3793651 C12.8474206,20.686627 12.4078175,20.9375 12.0522222,20.9375 L11.6989286,20.9375 C11.3421825,20.9375 10.9025794,20.686627 10.7219048,20.3805159 L10.1396032,19.2044048 C10.0245238,18.8672222 9.70805556,18.5150794 9.43876984,18.4207143 C9.16833333,18.3251984 8.23734127,18.1272619 7.91742063,18.2837698 L6.67686508,18.7038095 C6.33162698,18.7924206 5.84369048,18.6600794 5.59166667,18.4080556 L5.34194444,18.1583333 C5.09107143,17.9063095 4.95757937,17.418373 5.04503968,17.0731349 L5.46738095,15.8256746 C5.62388889,15.505754 5.65265873,15.0362302 5.5318254,14.7830556 C5.41099206,14.5287302 4.89313492,13.726627 4.55595238,13.6115476 L3.37063492,13.0269444 C3.06337302,12.8462698 2.8125,12.4078175 2.8125,12.0510714 L2.8125,11.6977778 C2.8125,11.3421825 3.06337302,10.9025794 3.37063492,10.7219048 L4.56055556,10.1338492 C4.8965873,10.0187698 5.25103175,9.70920635 5.34769841,9.4456746 C5.44321429,9.18214286 5.63654762,8.26265873 5.48003968,7.9427381 L5.04849206,6.67571429 C4.95873016,6.33047619 5.08992063,5.84369048 5.34194444,5.59166667 L5.59166667,5.34194444 C5.84369048,5.08992063 6.33162698,4.95757937 6.67686508,5.04619048 L7.94619048,5.4777381 C8.26611111,5.63424603 8.73103175,5.66301587 8.97845238,5.53988095 C9.2281746,5.41674603 10.017619,4.8965873 10.1315476,4.55940476 L10.720754,3.36948413 C10.9025794,3.06222222 11.3421825,2.8125 11.6989286,2.8125 L12.0522222,2.8125 C12.4078175,2.8125 12.8474206,3.06337302 13.0280952,3.36948413 L13.6115476,4.55710317 C13.7289286,4.89313492 14.0430952,5.24412698 14.3112302,5.33619048 C14.5782143,5.42940476 15.5046032,5.6215873 15.8245238,5.46507937 L17.0731349,5.0427381 C17.418373,4.95527778 17.9063095,5.08992063 18.1583333,5.34194444 L18.4080556,5.59166667 C18.6600794,5.84369048 18.7935714,6.33162698 18.7049603,6.67571429 L18.2837698,7.91742063 C18.1284127,8.23849206 18.1019444,8.70801587 18.2239286,8.96349206 C18.3459127,9.21781746 18.8672222,10.0210714 19.2044048,10.1361508 L20.3816667,10.7196032 C20.6877778,10.9014286 20.9375,11.3421825 20.9375,11.6977778 L20.9375,12.0510714 C20.9375,12.4078175 20.686627,12.8474206 20.3805159,13.0280952 L19.2078571,13.6069444 Z"/>
</svg>
