<svg xmlns="http://www.w3.org/2000/svg" width="24" height="24" viewBox="0 0 24 24">
  <g fill="#979797" fill-rule="evenodd">
    <path d="M11.25,16 L11,4 L13,4 L12.75,16 C12.75,16.4142136 12.4142136,16.75 12,16.75 C11.5857864,16.75 11.25,16.4142136 11.25,16 Z M15,20 L9,20 C7.343,20 6,18.657 6,17 L6,14 C6,12.412 7.2375,11.126 8.7985,11.0205 C8.8635,11.007 8.931,11 9,11 C9.5525,11 10,11.4475 10,12 C10,12.5525 9.5525,13 9,13 C8.4475,13 8,13.4475 8,14 L8,17 C8,17.5525 8.4475,18 9,18 L15,18 C15.5525,18 16,17.5525 16,17 L16,14 C16,13.4475 15.5525,13 15,13 C14.4475,13 14,12.5525 14,12 C14,11.4475 14.4475,11 15,11 C15.069,11 15.1365,11.007 15.2015,11.0205 C16.7625,11.126 18,12.412 18,14 L18,17 C18,18.657 16.657,20 15,20 Z"/>
    <path fill-rule="nonzero" d="M15.2884986,8.7026847 C15.6765807,9.09563606 16.3097333,9.09958342 16.7026847,8.71150138 C17.0956361,8.32341933 17.0995834,7.69026666 16.7115014,7.2973153 L12.7364392,3.27237749 C12.3466452,2.87769273 11.710078,2.87570843 11.317831,3.26795541 L7.29289322,7.29289322 C6.90236893,7.68341751 6.90236893,8.31658249 7.29289322,8.70710678 C7.68341751,9.09763107 8.31658249,9.09763107 8.70710678,8.70710678 L12.0205156,5.39369792 L15.2884986,8.7026847 Z"/>
  </g>
</svg>
