<svg xmlns="http://www.w3.org/2000/svg" width="24" height="24" viewBox="0 0 24 24">
  <path fill="#979797" d="M6.33411078,11.8555545 C7.57662829,13.098072 9.48555074,13.3465694 10.9986884,12.4994031 L11.4271833,12.2594999 L11.7447182,12.6341105 L16.2528042,17.9556275 C16.7228662,18.4256894 17.4847612,18.4256894 17.9548232,17.9556275 C18.4248851,17.4855655 18.4248851,16.7236705 17.9908946,16.2868279 L12.258781,11.42806 L12.4985336,10.9996091 C13.3457513,9.4855851 13.0973331,7.57749798 11.8545781,6.33474292 C10.9904134,5.46987218 9.79335951,5.07454229 8.61111401,5.2227433 L9.51668996,6.12831937 C10.557945,7.17078801 10.4262497,8.90092583 9.21174787,9.77583864 C8.25469462,10.4643491 6.90947429,10.2985537 6.05977087,9.44885024 L5.22288428,8.61196258 C5.07468529,9.79498748 5.46949565,10.9909394 6.33411078,11.8555545 Z M5.49098271,12.6986826 C4.27501268,11.4827125 3.77033938,9.76249992 4.09738521,8.10630628 C4.25913581,7.28494896 5.27924227,6.98415807 5.86972045,7.57254369 L6.90289894,8.60572217 C7.3534602,9.05628344 8.05073638,9.14222121 8.51510987,8.80814797 C9.13101342,8.36445823 9.1971463,7.49564236 8.67331644,6.97120184 L7.57263936,5.87052476 C6.98350755,5.28139295 7.28330981,4.26130627 8.10550197,4.09728954 C9.76154845,3.77027277 11.4828114,4.2757274 12.6978783,5.49178702 C14.2012634,6.99517221 14.5902269,9.24356153 13.7600577,11.1376918 L18.7979512,15.4104805 C19.73366,16.3461892 19.73366,17.8630468 18.7979512,18.7987555 C17.8622425,19.7344643 16.3453849,19.7344643 15.3764568,18.762684 L11.1368078,13.7609737 C9.24327888,14.591029 6.99424846,14.2019483 5.49098271,12.6986826 Z"/>
</svg>
