<svg xmlns="http://www.w3.org/2000/svg" width="24" height="24" viewBox="0 0 24 24">
  <path fill="#8C8C8C" fill-rule="evenodd" d="M11.5,11.5 L6.50034732,11.5 C6.22900057,11.5 6,11.7238576 6,12 C6,12.2680664 6.22401312,12.5 6.50034732,12.5 L11.5,12.5 L11.5,17.4996527 C11.5,17.7709994 11.7238576,18 12,18 C12.2680664,18 12.5,17.7759869 12.5,17.4996527 L12.5,12.5 L17.4996527,12.5 C17.7709994,12.5 18,12.2761424 18,12 C18,11.7319336 17.7759869,11.5 17.4996527,11.5 L12.5,11.5 L12.5,6.50034732 C12.5,6.22900057 12.2761424,6 12,6 C11.7319336,6 11.5,6.22401312 11.5,6.50034732 L11.5,11.5 Z"/>
</svg>
