<svg xmlns="http://www.w3.org/2000/svg" width="24" height="24" viewBox="0 0 24 24">
  <path fill="#8C8C8C" fill-rule="evenodd" d="M8.660856,19.628744 C15.453552,19.628744 19.168248,14.001152 19.168248,9.121352 C19.168248,8.96144 19.165008,8.80232 19.157664,8.64392 C19.878672,8.122712 20.505504,7.472336 21,6.731816 C20.338248,7.025792 19.626168,7.223864 18.879168,7.313216 C19.641576,6.856088 20.227008,6.132632 20.503056,5.27036 C19.789392,5.69336 18.999336,6.001088 18.15816,6.16676 C17.48424,5.44892 16.524552,5 15.46248,5 C13.422936,5 11.768952,6.653912 11.768952,8.692664 C11.768952,8.982536 11.801424,9.264344 11.864784,9.534704 C8.79564,9.380408 6.073968,7.910816 4.2528,5.676296 C3.935352,6.221912 3.752616,6.856088 3.752616,7.532456 C3.752616,8.813696 4.404648,9.944744 5.396016,10.606424 C4.79028,10.587776 4.22112,10.421312 3.723384,10.144472 C3.722592,10.15988 3.722592,10.175288 3.722592,10.191488 C3.722592,11.980256 4.995768,13.473392 6.685392,13.812008 C6.375216,13.896392 6.04884,13.941896 5.71188,13.941896 C5.473992,13.941896 5.242584,13.918352 5.017656,13.875296 C5.487744,15.342512 6.851064,16.4102 8.467608,16.440296 C7.203432,17.4308 5.611224,18.021128 3.88092,18.021128 C3.582984,18.021128 3.289008,18.004064 3,17.969936 C4.6344,19.017392 6.574944,19.628744 8.660856,19.628744"/>
</svg>
