<svg xmlns="http://www.w3.org/2000/svg" width="24" height="24" viewBox="0 0 24 24">
  <path fill="#8C8C8C" d="M16.4420827,19.0201536 C15.9003259,19.5987431 14.6448452,19.9914619 13.5205961,20.0100002 L13.3971702,20.0100002 C9.62023954,20.0100002 8.79992065,17.233161 8.79992065,15.6122811 L8.79992065,11.1091865 L7.31197974,11.1091865 C7.22923757,11.1091865 7.1498843,11.0763173 7.09137675,11.0178098 C7.0328692,10.9593022 7,10.8799489 7,10.7972068 L7,8.6706709 C7.00014742,8.44637149 7.14152406,8.24647059 7.3529591,8.17160088 C9.29191685,7.48861161 9.90002122,5.7965057 9.99002945,4.51029055 C10.0144219,4.1666006 10.1941945,4 10.4925144,4 L12.7102781,4 C12.8825798,4 13.0222579,4.13967809 13.0222579,4.31197974 L13.0222579,7.91352851 L15.6183489,7.91352851 C15.7903654,7.91339317 15.9300346,8.05251681 15.9305725,8.22453255 L15.9305725,10.780132 C15.9305079,10.8628742 15.8975766,10.9422018 15.8390233,11.0006636 C15.78047,11.0591254 15.701091,11.0919326 15.6183489,11.0918679 L13.0103056,11.0918679 L13.0103056,15.2563949 C13.0103056,16.3021003 13.699393,16.5906632 14.1250416,16.5906632 C14.5333716,16.5809063 14.9353596,16.4565046 15.1368414,16.3755216 C15.2863673,16.3155161 15.4178427,16.2757564 15.5354145,16.3052713 C15.6449367,16.3325909 15.7168945,16.4101589 15.7654355,16.5516353 L16.4535472,18.5615751 C16.5094059,18.7225655 16.5574591,18.8969716 16.4420827,19.0201536 Z"/>
</svg>
