<svg xmlns="http://www.w3.org/2000/svg" width="24" height="24" viewBox="0 0 24 24">
  <path fill="#8C8C8C" fill-rule="evenodd" d="M19.1169495,20.0936912 L4.88305051,20.0936912 C4.39524454,20.0936912 4,19.6959543 4,19.2054765 L4,4.88827503 C4,4.39761629 4.39524454,4 4.88305051,4 L19.1169495,4 C19.6045756,4 20,4.39761629 20,4.88827503 L20,19.2054765 C20,19.6959543 19.6045756,20.0936912 19.1169495,20.0936912 Z M15.039708,20.0936912 L15.039708,13.8614146 L17.1195228,13.8614146 L17.4308985,11.4325423 L15.039708,11.4325423 L15.039708,9.88181465 C15.039708,9.17859943 15.2338233,8.69933733 16.2364123,8.69933733 L17.515127,8.69879463 L17.515127,6.52643727 C17.2939148,6.49689041 16.534899,6.43074163 15.6518485,6.43074163 C13.8082333,6.43074163 12.5461245,7.56262749 12.5461245,9.64133941 L12.5461245,11.4325423 L10.4610342,11.4325423 L10.4610342,13.8614146 L12.5461245,13.8614146 L12.5461245,20.0936912 L15.039708,20.0936912 Z"/>
</svg>
