<svg xmlns="http://www.w3.org/2000/svg" width="24" height="24" viewBox="0 0 24 24">
  <path fill="#979797" fill-rule="evenodd" d="M9.27147391,9.300825 C9.26977391,9.305925 9.26807391,9.311025 9.26637391,9.315275 L9.27147391,9.300825 Z M7.81797391,13.923125 C7.81627391,13.927375 7.81542391,13.932475 7.81372391,13.936725 L7.81797391,13.923125 Z M16.0502239,14.327725 L16.0476739,14.330275 C16.0485239,14.329425 16.0493739,14.328575 16.0502239,14.327725 L16.0502239,14.327725 Z M7.95227391,14.329425 C7.95312391,14.330275 7.95397391,14.330275 7.95482391,14.331125 L7.95227391,14.329425 Z M12.2524239,17.178625 L12.2447739,17.183725 C12.2473239,17.182025 12.2498739,17.181175 12.2524239,17.178625 L12.2524239,17.178625 Z M11.9991239,15.993725 C12.1699739,15.993725 12.3408239,16.040475 12.4793739,16.134825 L16.2567739,18.819125 L14.9562739,14.275875 C14.8636239,13.941825 14.9928239,13.537225 15.2571739,13.328975 L18.9070739,10.438975 L14.3111239,10.313175 C13.9821739,10.304675 13.6370739,10.046275 13.5257239,9.725825 L12.0016739,5.272675 L10.4742239,9.724975 C10.3662739,10.044575 10.0194739,10.305525 9.68627391,10.313175 L5.09542391,10.435575 L8.74447391,13.330675 C9.00712391,13.537225 9.13802391,13.955425 9.04112391,14.280975 L7.73892391,18.817425 L11.5095239,16.142475 C11.6472239,16.043025 11.8223239,15.993725 11.9991239,15.993725 L11.9991239,15.993725 Z M7.48987391,20.287925 C7.23402391,20.287925 7.00792391,20.200375 6.84132391,20.079675 C6.52597391,19.857825 6.24802391,19.384375 6.43587391,18.737525 L7.74742391,14.167075 L4.09327391,11.273675 C3.57222391,10.859725 3.52122391,10.317425 3.64617391,9.948525 C3.76857391,9.582175 4.13492391,9.183525 4.79112391,9.168225 L9.35817391,9.046675 L10.8881739,4.575675 C11.1057739,3.939025 11.6047239,3.712075 11.9991239,3.712075 C12.3943739,3.712075 12.8933239,3.939025 13.1109239,4.575675 L14.6409239,9.046675 L19.2122239,9.168225 C19.8633239,9.182675 20.2296739,9.581325 20.3546239,9.948525 C20.4787239,10.319975 20.4260239,10.860575 19.9083739,11.272825 L16.2516739,14.167925 L17.5649239,18.739225 C17.7527739,19.382675 17.4756739,19.856125 17.1535239,20.083925 C16.7625239,20.363575 16.2091739,20.352525 15.7569739,20.028675 L11.9999739,17.357975 L8.24127391,20.029525 C7.98117391,20.215675 7.72362391,20.287925 7.48987391,20.287925 L7.48987391,20.287925 Z"/>
</svg>
