<svg xmlns="http://www.w3.org/2000/svg" width="24" height="24" viewBox="0 0 24 24">
  <path fill="#8C8C8C" fill-rule="evenodd" d="M16.9390596,20.203454 C16.8228304,20.203454 16.6811494,20.1661249 16.5199556,20.0498957 L12.1473598,16.9422476 C12.0862759,16.9006766 11.9445949,16.8998282 11.8843593,16.943096 L7.51176361,20.0507441 C7.15204677,20.3078059 6.88989464,20.1780024 6.7948751,20.1092829 C6.69815878,20.0414118 6.48690998,19.8344049 6.61247152,19.4008783 L8.12090675,14.1468066 C8.14635841,14.0619677 8.09884864,13.9050158 8.03267432,13.8532641 L3.81957569,10.5182478 C3.4708879,10.2408247 3.52179123,9.95152414 3.55912034,9.84038521 C3.59644944,9.72924628 3.73049487,9.4713361 4.16571831,9.46115543 L9.47323845,9.3203229 C9.54280633,9.31862612 9.66497431,9.23124208 9.69297114,9.14809998 L11.4610133,3.97971559 C11.6069362,3.55382443 11.8979336,3.50801144 12.0158596,3.50801144 C12.1337856,3.50801144 12.424783,3.55382443 12.5707058,3.97971559 L14.338748,9.14725159 C14.3675933,9.23124208 14.4897612,9.31862612 14.556784,9.3203229 L19.8676977,9.46115543 C20.3029211,9.4713361 20.4361181,9.72924628 20.4734472,9.84038521 C20.5107763,9.95152414 20.5616797,10.2408247 20.2129919,10.5173995 L16.0007416,13.8532641 C15.9345673,13.9050158 15.8870575,14.0628161 15.9108124,14.147655 L17.4200961,19.4017266 C17.546506,19.8344049 17.3344088,20.0414118 17.2385409,20.1092829 C17.1850924,20.1474604 17.0815889,20.203454 16.9390596,20.203454"/>
</svg>
