<?xml version="1.0" encoding="UTF-8"?>
<svg width="16px" height="16px" viewBox="0 0 16 16" version="1.1" xmlns="http://www.w3.org/2000/svg" xmlns:xlink="http://www.w3.org/1999/xlink">
    <!-- Generator: Sketch 49.3 (51167) - http://www.bohemiancoding.com/sketch -->
    <title>star-favicon</title>
    <desc>Created with Sketch.</desc>
    <defs></defs>
    <g id="star-favicon" stroke="none" stroke-width="1" fill="none" fill-rule="evenodd">
        <path d="M12.6420938,15.7435182 C12.5324916,15.7435182 12.3988889,15.7083175 12.2468858,15.5987153 L8.1236025,12.6682561 C8.06600133,12.6290553 7.93239863,12.6282552 7.87559749,12.6690561 L3.75231414,15.5995153 C3.41310729,15.8419202 3.16590229,15.7195177 3.07630048,15.6547164 C2.98509864,15.5907151 2.78589461,15.3955112 2.904297,14.9867029 L4.32672575,10.0322028 C4.35072624,9.95220116 4.30592533,9.80419817 4.24352407,9.75539718 L0.27064377,6.61053362 C-0.0581628757,6.34892833 -0.0101619055,6.07612281 0.025038806,5.9713207 C0.0602395175,5.86651858 0.186642072,5.62331366 0.597050368,5.61371347 L5.60195153,5.48091078 C5.66755286,5.47931075 5.78275518,5.39690909 5.80915572,5.3185075 L7.47638942,0.444808991 C7.6139922,0.0432008732 7.88839774,0 7.99959999,0 C8.11080224,0 8.38520779,0.0432008732 8.52281057,0.444808991 L10.1900443,5.31770748 C10.2172448,5.39690909 10.3324471,5.47931075 10.3956484,5.48091078 L15.4037496,5.61371347 C15.8141579,5.62331366 15.9397605,5.86651858 15.9749612,5.9713207 C16.0101619,6.07612281 16.0581629,6.34892833 15.7293562,6.6097336 L11.7572759,9.75539718 C11.6948747,9.80419817 11.6500738,9.95300118 11.6724742,10.0330028 L13.095703,14.9875029 C13.2149054,15.3955112 13.0149014,15.5907151 12.9244995,15.6547164 C12.8740985,15.6907171 12.7764965,15.7435182 12.6420938,15.7435182" id="Mask" fill="#707070"></path>
    </g>
</svg>