<?xml version="1.0" encoding="UTF-8"?>
<svg width="24px" height="24px" viewBox="0 0 24 24" version="1.1" xmlns="http://www.w3.org/2000/svg" xmlns:xlink="http://www.w3.org/1999/xlink">
    <!-- Generator: Sketch 49.3 (51167) - http://www.bohemiancoding.com/sketch -->
    <title>view-mode-3</title>
    <desc>Created with Sketch.</desc>
    <defs></defs>
    <g id="view-mode-3" stroke="none" stroke-width="1" fill="none" fill-rule="evenodd">
        <path d="M2.5,5 L5.5,5 C5.77614237,5 6,5.22385763 6,5.5 L6,18.5 C6,18.7761424 5.77614237,19 5.5,19 L2.5,19 C2.22385763,19 2,18.7761424 2,18.5 L2,5.5 C2,5.22385763 2.22385763,5 2.5,5 Z M7.5,5 L10.5,5 C10.7761424,5 11,5.22385763 11,5.5 L11,18.5 C11,18.7761424 10.7761424,19 10.5,19 L7.5,19 C7.22385763,19 7,18.7761424 7,18.5 L7,5.5 C7,5.22385763 7.22385763,5 7.5,5 Z M12.5,5 L21.5,5 C21.7761424,5 22,5.22385763 22,5.5 L22,18.5 C22,18.7761424 21.7761424,19 21.5,19 L12.5,19 C12.2238576,19 12,18.7761424 12,18.5 L12,5.5 C12,5.22385763 12.2238576,5 12.5,5 Z" id="Combined-Shape" fill="#8C8C8C"></path>
    </g>
</svg>