<?xml version="1.0" encoding="UTF-8"?>
<svg width="24px" height="24px" viewBox="0 0 24 24" version="1.1" xmlns="http://www.w3.org/2000/svg" xmlns:xlink="http://www.w3.org/1999/xlink">
    <!-- Generator: Sketch 49.3 (51167) - http://www.bohemiancoding.com/sketch -->
    <title>view-mode-2</title>
    <desc>Created with Sketch.</desc>
    <defs></defs>
    <g id="view-mode-2" stroke="none" stroke-width="1" fill="none" fill-rule="evenodd">
        <path d="M2.5,5 L5.5,5 C5.77614237,5 6,5.22385763 6,5.5 L6,18.5 C6,18.7761424 5.77614237,19 5.5,19 L2.5,19 C2.22385763,19 2,18.7761424 2,18.5 L2,5.5 C2,5.22385763 2.22385763,5 2.5,5 Z M7.5,14 L21.5,14 C21.7761424,14 22,14.2238576 22,14.5 L22,15.5 C22,15.7761424 21.7761424,16 21.5,16 L7.5,16 C7.22385763,16 7,15.7761424 7,15.5 L7,14.5 C7,14.2238576 7.22385763,14 7.5,14 Z M7.5,17 L21.5,17 C21.7761424,17 22,17.2238576 22,17.5 L22,18.5 C22,18.7761424 21.7761424,19 21.5,19 L7.5,19 C7.22385763,19 7,18.7761424 7,18.5 L7,17.5 C7,17.2238576 7.22385763,17 7.5,17 Z M7.5,5 L21.5,5 C21.7761424,5 22,5.22385763 22,5.5 L22,12.5 C22,12.7761424 21.7761424,13 21.5,13 L7.5,13 C7.22385763,13 7,12.7761424 7,12.5 L7,5.5 C7,5.22385763 7.22385763,5 7.5,5 Z" id="Combined-Shape" fill="#8C8C8C"></path>
    </g>
</svg>