<svg xmlns="http://www.w3.org/2000/svg" width="24" height="24" viewBox="0 0 24 24">
  <path fill="#979797" fill-rule="evenodd" d="M4.09588567,8.0542558 C4.17338448,7.66072288 4.66857167,7.51679652 4.95239848,7.79961685 L6.10783526,8.95505364 C6.8163958,9.66361418 7.9577419,9.8367284 8.77198263,9.25095818 C9.80865501,8.50415148 9.89420564,7.04878424 9.03064749,6.1842196 L7.79972485,4.95329696 C7.51589804,4.66947015 7.6598244,4.17428296 8.05335731,4.09577767 C9.64359261,3.78175652 11.3566182,4.23970403 12.5885473,5.47263963 C14.2180353,7.10212757 14.4917973,9.56900524 13.4188917,11.4863459 L19.4104555,16.5650341 C20.1965148,17.3510934 20.1965148,18.6252946 19.4104555,19.411354 C18.6243961,20.1974133 17.3501949,20.1974133 16.5641356,19.411354 L11.4854474,13.4197902 C9.56911324,14.4926958 7.10122909,14.2189338 5.47174114,12.5894458 C4.23880555,11.3565102 3.78186452,9.64449109 4.09588567,8.0542558 Z"/>
</svg>
