
<svg width="14px" height="17px" viewBox="0 0 14 17" version="1.1" xmlns="http://www.w3.org/2000/svg" xmlns:xlink="http://www.w3.org/1999/xlink">
    <g id="Page-1" stroke="none" stroke-width="1" fill="none" fill-rule="evenodd">
        <g id="Page"></g>
        <g id="Drop-zone" transform="translate(-128.000000, -285.000000)" fill="#FFFFFF">
            <g id="Group-2" transform="translate(70.031250, 275.488471)">
                <path d="M72.1581274,16.4442692 L72.1834152,16.4498009 L61.3431127,16.4498009 L64.7509079,13.0344984 C64.917781,12.867757 65.0093176,12.6418789 65.0093176,12.4048058 C65.0093176,12.1677326 64.917781,11.943435 64.7509079,11.7762984 L64.2206542,11.2457814 C64.0539127,11.0790399 63.8317225,10.9868448 63.594781,10.9868448 C63.3577079,10.9868448 63.1353859,11.0783814 62.9686444,11.2451228 L57.1270298,17.0862106 C56.9596298,17.2536106 56.8680932,17.4765911 56.8687518,17.713796 C56.8680932,17.952318 56.9596298,18.1754302 57.1270298,18.3425667 L62.9686444,24.1841814 C63.1353859,24.3507911 63.3575762,24.4424594 63.594781,24.4424594 C63.8317225,24.4424594 64.0539127,24.3506594 64.2206542,24.1841814 L64.7509079,23.6536643 C64.917781,23.4871862 65.0093176,23.2648643 65.0093176,23.0277911 C65.0093176,22.7908497 64.917781,22.5802497 64.7509079,22.4136399 L61.3046542,18.9792399 L72.1702444,18.9792399 C72.6584835,18.9792399 73.0687518,18.558435 73.0687518,18.0704594 L73.0687518,17.3201228 C73.0687518,16.8321472 72.6463664,16.4442692 72.1581274,16.4442692 Z" id="Path-Copy" transform="translate(64.968750, 17.714652) rotate(90.000000) translate(-64.968750, -17.714652) "></path>
            </g>
        </g>
    </g>
</svg>